<svg xmlns="http://www.w3.org/2000/svg" height="512" viewBox="0 0 58 57" width="512"><g id="Page-1" fill="none" fill-rule="evenodd"><g id="006---Fruit-and-Veg" fill-rule="nonzero" transform="translate(-1)"><path id="Shape" d="m19.22 17.08c.078154-.8758432.2628512-1.7388833.55-2.57.4776119-1.4278786 1.2549865-2.7371411 2.28-3.84 2.0627378-2.24087988 4.9643229-3.52322835 8.01-3.54h.04c4.2052722-.01148955 8.043772 2.39194804 9.87 6.18l.97 1.99.44.92.44.91 1.77 3.66.89 1.82v.01l1.76 3.65.89 1.83 5.3 10.96.89 1.83 5.32 11c.7556685 1.558545.2784787 3.4348315-1.1299695 4.4429838-1.4084481 1.0081524-3.3383868.8548632-4.5700305-.3629838l-12.93-12.75z" fill="#f9eab0"></path><path id="Shape" d="m44.48 22.61v.01l-2.47 1.76c-.1674834.1248057-.3711344.1915189-.58.19-.3231013.0036503-.6268072-.1538268-.81-.42-.156837-.2138024-.2208501-.4818079-.1775635-.7434098.0432867-.2616019.1902167-.4947031.4075635-.6465902l2.74-1.97z" fill="#e4c05c"></path><path id="Shape" d="m47.13 28.1-3.25 2.33c-.1711727.1162572-.3730829.178919-.58.18-.4341937.001554-.8197774-.2772581-.9543425-.6900762-.134565-.4128182.0126406-.8653019.3643425-1.1199238l3.53-2.53z" fill="#e4c05c"></path><path id="Shape" d="m53.32 40.89-3.73 2.67c-.1705453.1175545-.3728657.1803435-.58.18-.3206012.0031552-.6227181-.1497682-.81-.41-.1560024-.2158637-.2194489-.4850407-.1762728-.747852.0431761-.2628112.1894073-.4975411.4062728-.652148l4-2.87z" fill="#e4c05c"></path><path id="Shape" d="m22.05 10.67c-1.0250135 1.1028589-1.8023881 2.4121214-2.28 3.84-3.63-1.67-7.72.67-7.72.67 1.89-4.79 5.26-5.43 7.42-5.29.6926224.04019932 1.3760682.1782352 2.03.41.1960701.1032552.3804641.2273021.55.37z" fill="#24ae5f"></path><path id="Shape" d="m30.06 7.13c-1.5017206.00782714-2.9857896.32438313-4.36.93-.0814029-.20598308-.1384565-.42077303-.17-.64-.0053367-.69253764.0855313-1.38246111.27-2.05.55-2.09 2.24-5.09 7.39-5.33 0 0-3.54 3.12-3.13 7.09z" fill="#24ae5f"></path><path id="Shape" d="m25.53 7.42c.0315435.21922697.0885971.43401692.17.64-1.3816615.61244567-2.6237022 1.50058983-3.65 2.61-.1695359-.1426979-.3539299-.2667448-.55-.37-.6539318-.2317648-1.3373776-.36980068-2.03-.41-1.13-2.71-.97-8.03-.97-8.03s5.11 1.56 7.3 3.51c-.1844687.66753889-.2753367 1.35746236-.27 2.05z" fill="#4fba6f"></path><path id="Shape" d="m41.82 17.13-5.11 3.82c-.1688192.1306729-.3765189.2010796-.59.2-.3176159.0003275-.6171841-.1476074-.81-.4-.1580723-.2134045-.2247649-.480922-.1853699-.7435555s.1816418-.49881.3953699-.6564445l5.42-4.05.44.92z" fill="#e4c05c"></path><path id="Shape" d="m41 37c.000342 10.8144661-8.5958584 19.6703613-19.4055464 19.9917962-10.8096881.3214349-19.91690932-8.0080347-20.55915366-18.8034132-.64224434-10.7953786 7.41314985-20.1458955 18.18470006-21.108383.58-.05 1.18-.08 1.78-.08 11.040897.0115747 19.9884253 8.959103 20 20z" fill="#f29c1f"></path><path id="Shape" d="m13 27c-.5522847 0-1-.4477153-1-1v-1c0-.5522847.4477153-1 1-1s1 .4477153 1 1v1c0 .5522847-.4477153 1-1 1z" fill="#805333"></path><path id="Shape" d="m13 34c-.5522847 0-1-.4477153-1-1v-1c0-.5522847.4477153-1 1-1s1 .4477153 1 1v1c0 .5522847-.4477153 1-1 1z" fill="#805333"></path><path id="Shape" d="m10.4 28.5c-.175539-.0000077-.3479833-.0462228-.5-.134l-.866-.5c-.47421361-.2780058-.63512861-.886647-.36027453-1.3626943s.88241457-.640996 1.36027453-.3693057l.866.5c.3919413.2263139.5830208.6876562.4658809 1.1248223-.1171398.4371661-.5132928.7411578-.9658809.7411777z" fill="#805333"></path><path id="Shape" d="m16.463 32c-.1755887.0003718-.3481299-.0458692-.5-.134l-.866-.5c-.3119508-.1773616-.5049532-.5082732-.5057421-.8671183s.1907567-.6906021.5019247-.8693336c.3111679-.1787314.694247-.1770325 1.0038174.0044519l.866.5c.3919413.2263139.5830208.6876562.4658809 1.1248223-.1171398.4371661-.5132928.7411578-.9658809.7411777z" fill="#805333"></path><path id="Shape" d="m9.537 32c-.45258806-.0000199-.84874105-.3040116-.96588095-.7411777s.07393969-.8985084.46588095-1.1248223l.866-.5c.3095704-.1814844.6926495-.1831833 1.0038174-.0044519.311168.1787315.5027136.5104885.5019247.8693336s-.1937913.6897567-.5057421.8671183l-.866.5c-.15187005.0881308-.32441125.1343718-.5.134z" fill="#805333"></path><path id="Shape" d="m15.6 28.5c-.4525881-.0000199-.8487411-.3040116-.9658809-.7411777-.1171399-.4371661.0739396-.8985084.4658809-1.1248223l.866-.5c.3095704-.1814844.6926495-.1831833 1.0038174-.0044519.311168.1787315.5027136.5104885.5019247.8693336s-.1937913.6897567-.5057421.8671183l-.866.5c-.1520167.0877772-.324461.1339923-.5.134z" fill="#805333"></path><g fill="#e57e25"><circle id="Oval" cx="10" cy="47" r="1"></circle><circle id="Oval" cx="13" cy="50" r="1"></circle><circle id="Oval" cx="16" cy="46" r="1"></circle><circle id="Oval" cx="19" cy="52" r="1"></circle><circle id="Oval" cx="25" cy="52" r="1"></circle><circle id="Oval" cx="30" cy="49" r="1"></circle><circle id="Oval" cx="34" cy="44" r="1"></circle><circle id="Oval" cx="23" cy="47" r="1"></circle><circle id="Oval" cx="29" cy="44" r="1"></circle></g><circle id="Oval" cx="13" cy="29" fill="#a56a43" r="3"></circle></g></g></svg>