<svg xmlns="http://www.w3.org/2000/svg" height="512" viewBox="0 0 42 58" width="512"><g id="Page-1" fill="none" fill-rule="evenodd"><g id="004---Fozen-Food" fill-rule="nonzero"><rect id="Rectangle-path" fill="#14a085" height="48" rx="4" width="42" y="5"></rect><path id="Shape" d="m41.88 1.16c-.27 1.47-1.13 3.84-3.88 3.84h-34c-2.75 0-3.61-2.37-3.88-3.84-.04955036-.29032322.03233245-.5876626.22352682-.81168832.19119436-.22402572.47197044-.35161999.76647318-.34831168h39.78c.2945027-.00330831.5752788.12428596.7664732.34831168.1911943.22402572.2730772.5213651.2235268.81168832z" fill="#26b99a"></path><g fill="#33907c"><path id="Shape" d="m6 0v1c0 .55228475-.44771525 1-1 1s-1-.44771525-1-1v-1z"></path><path id="Shape" d="m10 0v1c0 .55228475-.44771525 1-1 1s-1-.44771525-1-1v-1z"></path><path id="Shape" d="m14 0v1c0 .55228475-.4477153 1-1 1s-1-.44771525-1-1v-1z"></path><path id="Shape" d="m18 0v1c0 .55228475-.4477153 1-1 1s-1-.44771525-1-1v-1z"></path><path id="Shape" d="m22 0v1c0 .55228475-.4477153 1-1 1s-1-.44771525-1-1v-1z"></path><path id="Shape" d="m26 0v1c0 .55228475-.4477153 1-1 1s-1-.44771525-1-1v-1z"></path><path id="Shape" d="m30 0v1c0 .55228475-.4477153 1-1 1s-1-.44771525-1-1v-1z"></path><path id="Shape" d="m34 0v1c0 .55228475-.4477153 1-1 1s-1-.44771525-1-1v-1z"></path><path id="Shape" d="m38 0v1c0 .55228475-.4477153 1-1 1s-1-.44771525-1-1v-1z"></path></g><path id="Shape" d="m41.88 56.84c.0495504.2903232-.0323325.5876626-.2235268.8116883-.1911944.2240257-.4719705.35162-.7664732.3483117h-39.78c-.29450274.0033083-.57527882-.124286-.76647318-.3483117-.19119437-.2240257-.27307718-.5213651-.22352682-.8116883.27-1.47 1.13-3.84 3.88-3.84h34c2.75 0 3.61 2.37 3.88 3.84z" fill="#26b99a"></path><path id="Shape" d="m6 57v1h-2v-1c0-.5522847.44771525-1 1-1s1 .4477153 1 1z" fill="#33907c"></path><path id="Shape" d="m10 57v1h-2v-1c0-.5522847.44771525-1 1-1s1 .4477153 1 1z" fill="#33907c"></path><path id="Shape" d="m14 57v1h-2v-1c0-.5522847.4477153-1 1-1s1 .4477153 1 1z" fill="#33907c"></path><path id="Shape" d="m18 57v1h-2v-1c0-.5522847.4477153-1 1-1s1 .4477153 1 1z" fill="#33907c"></path><path id="Shape" d="m22 57v1h-2v-1c0-.5522847.4477153-1 1-1s1 .4477153 1 1z" fill="#33907c"></path><path id="Shape" d="m26 57v1h-2v-1c0-.5522847.4477153-1 1-1s1 .4477153 1 1z" fill="#33907c"></path><path id="Shape" d="m30 57v1h-2v-1c0-.5522847.4477153-1 1-1s1 .4477153 1 1z" fill="#33907c"></path><path id="Shape" d="m34 57v1h-2v-1c0-.5522847.4477153-1 1-1s1 .4477153 1 1z" fill="#33907c"></path><path id="Shape" d="m38 57v1h-2v-1c0-.5522847.4477153-1 1-1s1 .4477153 1 1z" fill="#33907c"></path><circle id="Oval" cx="21" cy="24" fill="#26b99a" r="15"></circle><path id="Shape" d="m30.717 25.505-2.752 1.361-4.965-2.866 4.965-2.866 2.752 1.366c.321539.1577328.7028028.1319448 1.0001729-.0676498s.4656689-.5426726.4415-.9c-.024169-.3573273-.2371339-.6746174-.5586729-.8323502l-1.557-.77.979-.566c.3119508-.1773616.5049532-.5082732.5057421-.8671183s-.1907567-.6906021-.5019247-.8693336c-.3111679-.1787314-.694247-.1770325-1.0038174.0044519l-.979.566.111-1.734c.0356223-.5522847-.3832153-1.0288776-.9355-1.0645-.5522847-.0356223-1.0288776.3832153-1.0645.9355l-.2 3.064-4.954 2.869v-5.733l2.555-1.7c.297245-.1982824.4661283-.5400812.4430332-.8966441s-.2346599-.6737195-.555-.832-.7007882-.1336383-.9980332.0646441l-1.445.961v-1.132c0-.5522847-.4477153-1-1-1s-1 .4477153-1 1v1.132l-1.445-.964c-.4595009-.306518-1.080482-.1825009-1.387.277s-.1825009 1.080482.277 1.387l2.555 1.703v5.733l-4.965-2.868-.2-3.064c-.0356224-.5522847-.5122153-.9711224-1.0645-.9355s-.9711224.5122153-.9355 1.0645l.111 1.734-.979-.566c-.3095704-.1814844-.6926495-.1831833-1.0038174-.0044519-.311168.1787315-.5027136.5104885-.5019247.8693336s.1937913.6897567.5057421.8671183l.979.566-1.546.769c-.49512326.2449383-.69793826.8448767-.45299998 1.34s.84487668.6979383 1.33999998.453l2.752-1.361 4.961 2.868-4.965 2.866-2.752-1.361c-.3206459-.1577328-.7010843-.1324213-.9980078.0663998-.29692351.1988211-.46522236.5409461-.4415.8975.02372236.3565538.2358619.6733674.5565078.8311002l1.557.77-.979.566c-.3119508.1773616-.5049532.5082732-.5057421.8671183s.1907567.6906021.5019247.8693336c.3111679.1787314.694247.1770325 1.0038174-.0044519l.979-.566-.111 1.734c-.0353867.5508238.3822059 1.0261542.933 1.062h.066c.5278654.0011162.9656899-.4082497 1-.935l.2-3.064 4.955-2.867v5.733l-2.555 1.7c-.297245.1982824-.4661282.5400812-.4430331.8966441s.2346599.6737195.555.832c.32034.1582805.7007881.1336383.9980331-.0646441l1.445-.961v1.132c0 .5522847.4477153 1 1 1s1-.4477153 1-1v-1.132l1.445.964c.297245.1982824.6776931.2229246.9980332.0646441.3203401-.1582804.5319049-.4754371.555-.832s-.1457882-.6983617-.4430332-.8966441l-2.555-1.703v-5.733l4.965 2.868.2 3.064c.0343101.5267503.4721346.9361162 1 .935h.066c.5507941-.0358458.9683867-.5111762.933-1.062l-.117-1.737.979.566c.3095704.1814844.6926495.1831833 1.0038174.0044519.311168-.1787315.5027136-.5104885.5019247-.8693336s-.1937913-.6897567-.5057421-.8671183l-.979-.566 1.553-.768c.4951233-.2449383.6979383-.8448767.453-1.34s-.8448767-.6979383-1.34-.453z" fill="#fff"></path><path id="Shape" d="m8 45h-1c-.55228475 0-1-.4477153-1-1s.44771525-1 1-1h1c.55228475 0 1 .4477153 1 1s-.44771525 1-1 1z" fill="#ecf0f1"></path><path id="Shape" d="m35 45h-1c-.5522847 0-1-.4477153-1-1s.4477153-1 1-1h1c.5522847 0 1 .4477153 1 1s-.4477153 1-1 1z" fill="#ecf0f1"></path><path id="Shape" d="m30 45h-18c-.5522847 0-1-.4477153-1-1s.4477153-1 1-1h18c.5522847 0 1 .4477153 1 1s-.4477153 1-1 1z" fill="#ecf0f1"></path><path id="Shape" d="m8 49h-1c-.55228475 0-1-.4477153-1-1s.44771525-1 1-1h1c.55228475 0 1 .4477153 1 1s-.44771525 1-1 1z" fill="#ecf0f1"></path><path id="Shape" d="m35 49h-1c-.5522847 0-1-.4477153-1-1s.4477153-1 1-1h1c.5522847 0 1 .4477153 1 1s-.4477153 1-1 1z" fill="#ecf0f1"></path><path id="Shape" d="m30 49h-18c-.5522847 0-1-.4477153-1-1s.4477153-1 1-1h18c.5522847 0 1 .4477153 1 1s-.4477153 1-1 1z" fill="#ecf0f1"></path></g></g></svg>