<svg xmlns="http://www.w3.org/2000/svg" height="512" viewBox="0 0 42 58" width="512"><g id="Page-1" fill="none" fill-rule="evenodd"><g id="033---Broccoli" fill-rule="nonzero"><rect id="Rectangle-path" fill="#65ddb9" height="48" rx="4" width="42" y="5"></rect><path id="Shape" d="m41.88 1.16c-.27 1.47-1.13 3.84-3.88 3.84h-34c-2.75 0-3.61-2.37-3.88-3.84-.04955036-.29032322.03233245-.5876626.22352682-.81168832.19119436-.22402572.47197044-.35161999.76647318-.34831168h39.78c.2945027-.00330831.5752788.12428596.7664732.34831168.1911943.22402572.2730772.5213651.2235268.81168832z" fill="#46b29d"></path><g fill="#33907c"><path id="Shape" d="m6 0v1c0 .55228475-.44771525 1-1 1s-1-.44771525-1-1v-1z"></path><path id="Shape" d="m10 0v1c0 .55228475-.44771525 1-1 1s-1-.44771525-1-1v-1z"></path><path id="Shape" d="m14 0v1c0 .55228475-.4477153 1-1 1s-1-.44771525-1-1v-1z"></path><path id="Shape" d="m18 0v1c0 .55228475-.4477153 1-1 1s-1-.44771525-1-1v-1z"></path><path id="Shape" d="m22 0v1c0 .55228475-.4477153 1-1 1s-1-.44771525-1-1v-1z"></path><path id="Shape" d="m26 0v1c0 .55228475-.4477153 1-1 1s-1-.44771525-1-1v-1z"></path><path id="Shape" d="m30 0v1c0 .55228475-.4477153 1-1 1s-1-.44771525-1-1v-1z"></path><path id="Shape" d="m34 0v1c0 .55228475-.4477153 1-1 1s-1-.44771525-1-1v-1z"></path><path id="Shape" d="m38 0v1c0 .55228475-.4477153 1-1 1s-1-.44771525-1-1v-1z"></path></g><path id="Shape" d="m41.88 56.84c.0495504.2903232-.0323325.5876626-.2235268.8116883-.1911944.2240257-.4719705.35162-.7664732.3483117h-39.78c-.29450274.0033083-.57527882-.124286-.76647318-.3483117-.19119437-.2240257-.27307718-.5213651-.22352682-.8116883.27-1.47 1.13-3.84 3.88-3.84h34c2.75 0 3.61 2.37 3.88 3.84z" fill="#46b29d"></path><path id="Shape" d="m6 57v1h-2v-1c0-.5522847.44771525-1 1-1s1 .4477153 1 1z" fill="#33907c"></path><path id="Shape" d="m10 57v1h-2v-1c0-.5522847.44771525-1 1-1s1 .4477153 1 1z" fill="#33907c"></path><path id="Shape" d="m14 57v1h-2v-1c0-.5522847.4477153-1 1-1s1 .4477153 1 1z" fill="#33907c"></path><path id="Shape" d="m18 57v1h-2v-1c0-.5522847.4477153-1 1-1s1 .4477153 1 1z" fill="#33907c"></path><path id="Shape" d="m22 57v1h-2v-1c0-.5522847.4477153-1 1-1s1 .4477153 1 1z" fill="#33907c"></path><path id="Shape" d="m26 57v1h-2v-1c0-.5522847.4477153-1 1-1s1 .4477153 1 1z" fill="#33907c"></path><path id="Shape" d="m30 57v1h-2v-1c0-.5522847.4477153-1 1-1s1 .4477153 1 1z" fill="#33907c"></path><path id="Shape" d="m34 57v1h-2v-1c0-.5522847.4477153-1 1-1s1 .4477153 1 1z" fill="#33907c"></path><path id="Shape" d="m38 57v1h-2v-1c0-.5522847.4477153-1 1-1s1 .4477153 1 1z" fill="#33907c"></path><path id="Shape" d="m8 46h-1c-.55228475 0-1-.4477153-1-1s.44771525-1 1-1h1c.55228475 0 1 .4477153 1 1s-.44771525 1-1 1z" fill="#fff"></path><path id="Shape" d="m35 46h-1c-.5522847 0-1-.4477153-1-1s.4477153-1 1-1h1c.5522847 0 1 .4477153 1 1s-.4477153 1-1 1z" fill="#fff"></path><path id="Shape" d="m8 50h-1c-.55228475 0-1-.4477153-1-1s.44771525-1 1-1h1c.55228475 0 1 .4477153 1 1s-.44771525 1-1 1z" fill="#fff"></path><path id="Shape" d="m35 50h-1c-.5522847 0-1-.4477153-1-1s.4477153-1 1-1h1c.5522847 0 1 .4477153 1 1s-.4477153 1-1 1z" fill="#fff"></path><path id="Shape" d="m30 50h-18c-.5522847 0-1-.4477153-1-1s.4477153-1 1-1h18c.5522847 0 1 .4477153 1 1s-.4477153 1-1 1z" fill="#fff"></path><path id="Shape" d="m38 23.38c-.0026497 1.4215611-.5699051 2.783846-1.576976 3.7871662-1.0070709 1.0033201-2.3714629 1.5654884-3.793024 1.5628338-.3285216-.0042488-.6561996-.0343417-.98-.09-.3967152 1.4950057-1.5035988 2.6991156-2.96 3.22-.7386888.2915809-1.5258465.4408694-2.32.44-.9956096.00904-1.9780379-.2279795-2.86-.69-1.4802167-.6833044-2.4505669-2.1407628-2.51-3.77-.0594331 1.6292372-1.0297833 3.0866956-2.51 3.77-.8819621.4620205-1.8643904.69904-2.86.69-.7941535.0008694-1.5813112-.1484191-2.32-.44-1.4564012-.5208844-2.5632848-1.7249943-2.96-3.22-.3238004.0556583-.65147836.0857512-.98.09-2.95472341 0-5.35-2.3952766-5.35-5.35s2.39527659-5.35 5.35-5.35c.21732858-.0016251.43451051.0117399.65.04-.41323672-.5212461-.64184689-1.1648717-.65-1.83 0-1.97 2-3.56 4.47-3.56.9539421-.005299 1.8911379.2506142 2.71.74.1-1.9 2.04-3.42 4.45-3.42s4.35 1.52 4.45 3.42c.8188621-.4893858 1.7560579-.745299 2.71-.74 2.47 0 4.47 1.59 4.47 3.56-.0081531.6651283-.2367633 1.3087539-.65 1.83.2154895-.0282601.4326714-.0416251.65-.04 1.4220464-.0042501 2.7873641.5574045 3.7947815 1.5610698 1.0074173 1.0036654 1.5741624 2.3668779 1.5752185 3.7889302z" fill="#4fba6f"></path><path id="Shape" d="m28.69 31.86c-1.06 1.37-4.11 5.67-4.11 9.36v.89c-.0010571.2374528-.0965376.4647298-.2653791.6316953s-.3971711.2599007-.6346209.2583047h-5.36c-.2374498.001596-.4657794-.0913392-.6346209-.2583047s-.264322-.3942425-.2653791-.6316953v-.89c0-3.69-3.05-7.99-4.11-9.36.7386888.2915809 1.5258465.4408694 2.32.44.9956096.00904 1.9780379-.2279795 2.86-.69 1.06 1.18 2.51 3.16 2.51 5.15 0-1.99 1.45-3.97 2.51-5.15.8819621.4620205 1.8643904.69904 2.86.69.7941535.0008694 1.5813112-.1484191 2.32-.44z" fill="#24ae5f"></path><path id="Shape" d="m13.776 22.929c-.5522847 0-1-.4477153-1-1-.0066573-.1887928-.1092271-.3611251-.272-.457-.4838014-.2664774-.6599774-.8746986-.3935-1.3585s.8746986-.6599774 1.3585-.3935c.7973726.4472162 1.2955956 1.2858472 1.307 2.2 0 .5522847-.4477153 1-1 1z" fill="#4c8056"></path><path id="Shape" d="m18.361 19.081c-.4790412-.0004681-.8904614-.3405923-.981-.811-.0816802-.3916328-.3465826-.7201565-.712-.883-.5069974-.2192571-.740257-.8080026-.521-1.315.2192571-.5069974.8080026-.740257 1.315-.521.9711879.427214 1.6734149 1.3007067 1.882 2.341.0501321.2604433-.0052529.5301343-.1539702.7497409-.1487174.2196066-.3785843.3711387-.6390298.4212591-.0626438.0118389-.1262475.0178645-.19.018z" fill="#4c8056"></path><path id="Shape" d="m27.375 22.929c-.5522847 0-1-.4477153-1-1 .0118143-.9143031.5103909-1.7528876 1.308-2.2.3135639-.1796763.6996756-.1761885 1.0099426.0091228s.4964083.5236096.4868852.8848785-.2132288.6892908-.5328278.8579987c-.1630469.0955994-.2657155.2680978-.272.457-.0049391.5487668-.451211.9910222-1 .991z" fill="#4c8056"></path><path id="Shape" d="m22.791 19.081c-.0637548-.0000895-.1273627-.0061155-.19-.018-.2604455-.0501204-.4903124-.2016525-.6390298-.4212591-.1487173-.2196066-.2041023-.4892976-.1539702-.7497409.2079049-1.0403018.9098792-1.9139443 1.881-2.341.3279698-.1418344.7066942-.0979251.9935113.1151879.2868172.213113.4381527.5630526.397.918s-.2685415.6609777-.5965113.8028121c-.3652115.1631111-.6300147.4915117-.712.883-.0904669.4700388-.5013354.8100535-.98.811z" fill="#4c8056"></path><path id="Shape" d="m21 25.271c-.4046724-.0000657-.7694151-.244017-.924-.618-.2343106-.5599995-.6798116-1.0051413-1.24-1.239-.5122441-.2065545-.7600545-.7892559-.5535-1.3015s.7892559-.7600545 1.3015-.5535c.5309647.214329 1.0127452.5344954 1.416.941.40307-.407224.8848636-.7280795 1.416-.943.5122441-.2065545 1.0949455.0412559 1.3015.5535s-.0412559 1.0949455-.5535 1.3015c-.5601884.2338587-1.0056894.6790005-1.24 1.239-.1539606.3747676-.5188402.6196002-.924.62z" fill="#4c8056"></path></g></g></svg>