<svg xmlns="http://www.w3.org/2000/svg" height="512" viewBox="0 0 58 58" width="512"><g id="Page-1" fill="none" fill-rule="evenodd"><g id="035---Apple-Puree" fill-rule="nonzero"><path id="Shape" d="m56.54 39.51c2.46-7.34 2.04-15.78-3.01-21.88-1.5410685-1.8523632-3.4473944-3.3672116-5.6-4.45 3.59-5.35.07-12.94.07-12.94-12.39-1.52-18.79 4.61-21.04 7.46h-.01l-4.11 1.23c-1.68-.68-16.25-6.11-22.84 7.07 1.95572826 2.987744 4.55610102 5.4992736 7.61 7.35-2.50396613 4.066457-3.23732179 8.9795787-2.03 13.6 1.46016456 4.7612289 4.14665844 9.054791 7.79 12.45 1.4131135 1.379192 2.9646485 2.6090264 4.63 3.67zm-29.8-25.56c-.5126894.2743733-1.0070588.5816839-1.48.92 0 0 0-.01-.01 0 .4763626-.338394.9740632-.645699 1.49-.92z" fill="#4fba6f"></path><path id="Shape" d="m19.579 19.339c-.4470481-.00058-.8394032-.2978064-.961-.728-.2932-1.1239646-1.0470214-2.0720512-2.076-2.611-3.64-2-10.188-.066-10.254-.046-.52908878.159058-1.08694197-.1409112-1.24599997-.67-.15905801-.5290888.1409112-1.086942.66999997-1.246.3-.09 7.424-2.185 11.791.208 1.4987365.7945793 2.5996079 2.176555 3.039 3.815.086004.30187.0252822.6266056-.1639893.8770022s-.4851285.3973966-.7990107.3969978z" fill="#24ae5f"></path><path id="Shape" d="m34.655 14.4c-.341875-.0002264-.6599426-.1750877-.8433165-.4636229-.1833739-.2885353-.2066386-.6507538-.0616835-.9603771 1.8096721-3.52074944 4.4531766-6.54533057 7.7-8.81.4600532-.30596575 1.0810342-.1810532 1.387.279s.1810532 1.08103425-.279 1.387c-2.9326907 2.0707558-5.3298647 4.8103832-6.993 7.992-.1652083.3528937-.5203528.5776885-.91.576z" fill="#24ae5f"></path><path id="Shape" d="m58 41c0 2.21-8.95 4-20 4s-20-1.79-20-4 8.95-4 20-4c8.39 0 15.57 1.03 18.54 2.51.94.46 1.46.96 1.46 1.49z" fill="#95a5a5"></path><path id="Shape" d="m58 41v13c0 2.21-8.95 4-20 4s-20-1.79-20-4v-13c0 2.21 8.95 4 20 4s20-1.79 20-4z" fill="#f0c419"></path><path id="Shape" d="m56.54 39.51c-2.97-1.48-10.15-2.51-18.54-2.51-11.05 0-20 1.79-20 4v12.07c-1.6653515-1.0609736-3.2168865-2.290808-4.63-3.67-3.64334156-3.395209-6.32983544-7.6887711-7.79-12.45-1.20732179-4.6204213-.47396613-9.533543 2.03-13.6 2.31399934-3.9101844 5.9826184-6.8351163 10.31-8.22 1.559671-.4964495 3.1948581-.7131203 4.83-.64.8442663.0395265 1.6821199.1668802 2.5.38.01-.01.01 0 .01 0 .4729412-.3383161.9673106-.6456267 1.48-.92.26-.15.53-.28.79-.41l.12-.06c6.25-3.04 14.1-3.43 20.28-.3 2.1526056 1.0827884 4.0589315 2.5976368 5.6 4.45 5.05 6.1 5.47 14.54 3.01 21.88z" fill="#e64c3c"></path><path id="Shape" d="m27.86 2.73c-.4958254 1.61558035-.8012284 3.28355064-.91 4.97-.1913149 2.07748735-.2614337 4.1643563-.21 6.25-.5159368.274301-1.0136374.581606-1.49.92-.8178801-.2131198-1.6557337-.3404735-2.5-.38-.06-2.13-.01-3.98.09-5.56.0622072-2.60588218.5000507-5.18915885 1.3-7.67.410795-1.01977588 1.5676837-1.51677853 2.5901544-1.11273768 1.0224707.40404086 1.5271146 1.55761684 1.1298456 2.58273768z" fill="#a56a43"></path><path id="Shape" d="m35.6 21.68c-.4339863.3380627-1.0595339.2621033-1.4-.17-2.76-3.53-5.76-5.76-8.94-6.64.4729412-.3383161.9673106-.6456267 1.48-.92.26-.15.53-.28.79-.41 3.2756732 1.5038896 6.1122366 3.8206458 8.24 6.73.1655394.2090933.2407002.4756479.2087773.74042-.0319229.264772-.1682844.5058239-.3787773.66958z" fill="#c03a2b"></path></g></g></svg>