<svg xmlns="http://www.w3.org/2000/svg" height="512" viewBox="0 0 50 58" width="512"><g id="Page-1" fill="none" fill-rule="evenodd"><g id="013---Flour" fill-rule="nonzero" transform="translate(-1)"><path id="Shape" d="m49.39 53.54c.0057636 1.6211151-1.1617542 3.0086001-2.76 3.28-.1907001.040247-.3850994.0603573-.58.06-1.311745.0052467-2.5033653-.7630349-3.04-1.96-5.71 3.08-17.01 3.08-17.01 3.08s-11.3 0-17.01-3.08c-.53663471 1.1969651-1.72825504 1.9652467-3.04 1.96-.19490057.0003573-.38929988-.019753-.58-.06-1.46688936-.2575117-2.58539638-1.4561624-2.74094306-2.9373383-.15554668-1.4811758.6895509-2.8860358 2.07094306-3.4426617-6.97-18.89-2.4-36.07.02-42.88-1.38949487-.5464838-2.24538343-1.95104633-2.09404871-3.43645481.15133472-1.48540847 1.27289406-2.68850687 2.74404871-2.94354519.19070012-.04024704.38509943-.06035731.58-.06 1.31174496-.00524667 2.50336529.76303486 3.04 1.96 5.71-3.08 17.01-3.08 17.01-3.08s11.3 0 17.01 3.08c.5366347-1.19696514 1.728255-1.96524667 3.04-1.96.1949006-.00035731.3892999.01975296.58.06 1.4711546.25503832 2.592714 1.45813672 2.7440487 2.94354519.1513347 1.48540848-.7045538 2.88997101-2.0940487 3.43645481 2.42 6.81 6.99 23.99.02 42.88 1.2641112.5098732 2.0913884 1.7369351 2.09 3.1z" fill="#f0c419"></path><path id="Shape" d="m47.52 54.38c.0122484.8948966-.3044514 1.7631523-.89 2.44-.1907001.040247-.3850994.0603573-.58.06-1.311745.0052467-2.5033653-.7630349-3.04-1.96-5.71 3.08-17.01 3.08-17.01 3.08s-11.3 0-17.01-3.08c-.53663471 1.1969651-1.72825504 1.9652467-3.04 1.96-.19490057.0003573-.38929988-.019753-.58-.06-.58554857-.6768477-.90224838-1.5451034-.89-2.44-.0375358-1.3522387.71642872-2.6023353 1.93-3.2-6.42-19.54-2.21-37.32.01-44.36-1.22282755-.58889463-1.98340345-1.84345282-1.94-3.2-.01224838-.89489662.30445143-1.76315227.89-2.44.19070012-.04024704.38509943-.06035731.58-.06 1.31174496-.00524667 2.50336529.76303486 3.04 1.96 5.71-3.08 17.01-3.08 17.01-3.08s11.3 0 17.01 3.08c.5366347-1.19696514 1.728255-1.96524667 3.04-1.96.1949006-.00035731.3892999.01975296.58.06.5855486.67684773.9022484 1.54510338.89 2.44.0434035 1.35654718-.7171724 2.61110537-1.94 3.2 2.22 7.04 6.43 24.82.01 44.36 1.2135713.5976647 1.9675358 1.8477613 1.93 3.2z" fill="#f3d55b"></path><path id="Shape" d="m26 13c-13.932 0-16.562-2.94-16.948-3.529-.30375659-.46226234-.17526231-1.08324337.28700001-1.38699998.46226233-.30375661 1.08324339-.17526234 1.38699999.28699998.006.004 2.374 2.629 15.274 2.629 12.945 0 15.286-2.644 15.308-2.671.1444542-.21874693.3708305-.37018942.6281509-.42022394s.5239511.00554551.7398491.15422394c.4585342.31723248.5793837.94280611.272 1.408-.386.59-3.016 3.529-16.948 3.529z" fill="#f0c419"></path><path id="Shape" d="m24.2 43.544c2.485 2.485 1.672 7.329 1.672 7.329s-4.844.813-7.329-1.672-1.671-7.328-1.671-7.328 4.844-.814 7.328 1.671z" fill="#f29c1f"></path><path id="Shape" d="m27.8 43.544c-2.485 2.485-1.672 7.329-1.672 7.329s4.844.813 7.329-1.672 1.671-7.328 1.671-7.328-4.844-.814-7.328 1.671z" fill="#e57e25"></path><path id="Shape" d="m24.2 30.8c2.485 2.485 1.672 7.328 1.672 7.328s-4.844.814-7.329-1.671-1.671-7.329-1.671-7.329 4.844-.814 7.328 1.672z" fill="#e57e25"></path><path id="Shape" d="m27.8 30.8c-2.485 2.485-1.672 7.328-1.672 7.328s4.844.814 7.329-1.671 1.671-7.329 1.671-7.329-4.844-.814-7.328 1.672z" fill="#f29c1f"></path><path id="Shape" d="m24.2 18.054c2.485 2.485 1.672 7.328 1.672 7.328s-4.844.814-7.329-1.671-1.671-7.329-1.671-7.329 4.844-.813 7.328 1.672z" fill="#f29c1f"></path><path id="Shape" d="m27.8 18.054c-2.485 2.485-1.672 7.328-1.672 7.328s4.844.814 7.329-1.671 1.671-7.329 1.671-7.329-4.844-.813-7.328 1.672z" fill="#e57e25"></path><path id="Shape" d="m26 54c-.5522847 0-1-.4477153-1-1v-37c0-.5522847.4477153-1 1-1s1 .4477153 1 1v37c0 .5522847-.4477153 1-1 1z" fill="#d25627"></path></g></g></svg>