<svg xmlns="http://www.w3.org/2000/svg" height="512" viewBox="0 0 44 58" width="512"><g id="Page-1" fill="none" fill-rule="evenodd"><g id="017---Juice-Fridge" fill-rule="nonzero"><rect id="Rectangle-path" fill="#bdc3c7" height="4" rx="1" width="44"></rect><rect id="Rectangle-path" fill="#bdc3c7" height="8" rx="1" width="44" y="50"></rect><path id="Rectangle-path" d="m1 4h42v46h-42z" fill="#2980ba"></path><path id="Shape" d="m6 54h2c1.1045695 0 2 .8954305 2 2v2h-6v-2c0-1.1045695.8954305-2 2-2z" fill="#7f8c8d"></path><path id="Shape" d="m36 54h2c1.1045695 0 2 .8954305 2 2v2h-6v-2c0-1.1045695.8954305-2 2-2z" fill="#7f8c8d"></path><g fill="#95a5a5"><path id="Shape" d="m16 55c-.5522847 0-1-.4477153-1-1v-1c0-.5522847.4477153-1 1-1s1 .4477153 1 1v1c0 .5522847-.4477153 1-1 1z"></path><path id="Shape" d="m20 55c-.5522847 0-1-.4477153-1-1v-1c0-.5522847.4477153-1 1-1s1 .4477153 1 1v1c0 .5522847-.4477153 1-1 1z"></path><path id="Shape" d="m24 55c-.5522847 0-1-.4477153-1-1v-1c0-.5522847.4477153-1 1-1s1 .4477153 1 1v1c0 .5522847-.4477153 1-1 1z"></path><path id="Shape" d="m28 55c-.5522847 0-1-.4477153-1-1v-1c0-.5522847.4477153-1 1-1s1 .4477153 1 1v1c0 .5522847-.4477153 1-1 1z"></path><path id="Rectangle-path" d="m1 33h42v4h-42z"></path><path id="Rectangle-path" d="m1 17h42v4h-42z"></path></g><path id="Rectangle-path" d="m8 4h4v4h-4z" fill="#ecf0f1"></path><path id="Shape" d="m14 10v7h-8v-7c.0032948-1.10320187.89679813-1.9967052 2-2h4c1.1032019.0032948 1.9967052.89679813 2 2z" fill="#f3d55b"></path><path id="Rectangle-path" d="m16 4h4v4h-4z" fill="#ecf0f1"></path><path id="Shape" d="m22 10v7h-8v-7c.0032948-1.10320187.8967981-1.9967052 2-2h4c1.1032019.0032948 1.9967052.89679813 2 2z" fill="#f0c419"></path><path id="Rectangle-path" d="m24 4h4v4h-4z" fill="#ecf0f1"></path><path id="Shape" d="m30 10v7h-8v-7c.0032948-1.10320187.8967981-1.9967052 2-2h4c1.1032019.0032948 1.9967052.89679813 2 2z" fill="#f3d55b"></path><path id="Rectangle-path" d="m32 4h4v4h-4z" fill="#ecf0f1"></path><path id="Shape" d="m38 10v7h-8v-7c.0032948-1.10320187.8967981-1.9967052 2-2h4c1.1032019.0032948 1.9967052.89679813 2 2z" fill="#f0c419"></path><path id="Rectangle-path" d="m8 21h4v4h-4z" fill="#ecf0f1"></path><path id="Shape" d="m14 27v6h-8v-6c.0032948-1.1032019.89679813-1.9967052 2-2h4c1.1032019.0032948 1.9967052.8967981 2 2z" fill="#f29c1f"></path><path id="Rectangle-path" d="m16 21h4v4h-4z" fill="#ecf0f1"></path><path id="Shape" d="m22 27v6h-8v-6c.0032948-1.1032019.8967981-1.9967052 2-2h4c1.1032019.0032948 1.9967052.8967981 2 2z" fill="#e57e25"></path><path id="Rectangle-path" d="m24 21h4v4h-4z" fill="#ecf0f1"></path><path id="Shape" d="m30 27v6h-8v-6c.0032948-1.1032019.8967981-1.9967052 2-2h4c1.1032019.0032948 1.9967052.8967981 2 2z" fill="#f29c1f"></path><path id="Rectangle-path" d="m32 21h4v4h-4z" fill="#ecf0f1"></path><path id="Shape" d="m38 27v6h-8v-6c.0032948-1.1032019.8967981-1.9967052 2-2h4c1.1032019.0032948 1.9967052.8967981 2 2z" fill="#e57e25"></path><path id="Rectangle-path" d="m8 37h4v4h-4z" fill="#ecf0f1"></path><path id="Shape" d="m14 43v7h-8v-7c.0032948-1.1032019.89679813-1.9967052 2-2h4c1.1032019.0032948 1.9967052.8967981 2 2z" fill="#e64c3c"></path><path id="Rectangle-path" d="m16 37h4v4h-4z" fill="#ecf0f1"></path><path id="Shape" d="m22 43v7h-8v-7c.0032948-1.1032019.8967981-1.9967052 2-2h4c1.1032019.0032948 1.9967052.8967981 2 2z" fill="#c03a2b"></path><path id="Rectangle-path" d="m24 37h4v4h-4z" fill="#ecf0f1"></path><path id="Shape" d="m30 43v7h-8v-7c.0032948-1.1032019.8967981-1.9967052 2-2h4c1.1032019.0032948 1.9967052.8967981 2 2z" fill="#e64c3c"></path><path id="Rectangle-path" d="m32 37h4v4h-4z" fill="#ecf0f1"></path><path id="Shape" d="m38 43v7h-8v-7c.0032948-1.1032019.8967981-1.9967052 2-2h4c1.1032019.0032948 1.9967052.8967981 2 2z" fill="#c03a2b"></path></g></g></svg>