<svg xmlns="http://www.w3.org/2000/svg" height="512" viewBox="0 0 58 58" width="512"><g id="Page-1" fill="none" fill-rule="evenodd"><g id="028---Shopping-Basket" fill-rule="nonzero"><path id="Shape" d="m29.59 28h-22.59c-1.10320187.0032948-1.9967052.8967981-2 2v2c.0032948 1.1032019.89679813 1.9967052 2 2h.87l1.81 6.73 3.56 14.24c.4479082 1.7786655 2.045808 3.0265099 3.88 3.03h23.76c1.834192-.0034901 3.4320918-1.2513345 3.88-3.03l3.56-14.24 1.81-6.73h.87c1.1032019-.0032948 1.9967052-.8967981 2-2v-2c-.0032948-1.1032019-.8967981-1.9967052-2-2z" fill="#2980ba"></path><path id="Shape" d="m53 30v2c-.0032948 1.1032019-.8967981 1.9967052-2 2h-.87l-.25-.68c-.3311029-.9122567-1.2693391-1.4551612-2.2252547-1.2876296-.9559155.1675316-1.6536074.9971452-1.6547453 1.9676296h-34c-.0011379-.9704844-.6988298-1.800098-1.6547453-1.9676296-.95591557-.1675316-1.89415182.3753729-2.2252547 1.2876296l-.25.68h-.87c-1.10320187-.0032948-1.9967052-.8967981-2-2v-2c.0032948-1.1032019.89679813-1.9967052 2-2h44c1.1032019.0032948 1.9967052.8967981 2 2z" fill="#3b97d3"></path><g fill="#285680"><rect id="Rectangle-path" height="16" rx="2" width="4" x="27" y="38"></rect><path id="Shape" d="m21.034 54c-.9455468.001139-1.757973-.670982-1.934-1.6l-2.261-12.072c-.1080422-.57479.0455705-1.1678347.4190727-1.6178933s.9280713-.7103508 1.5129273-.7101067c.9436636.0012632 1.7533237.672832 1.929 1.6l2.263 12.069c.1085798.5746725-.0443286 1.1678528-.417192 1.6184203-.3728634.4505674-.9269684.7117407-1.511808.7125797z"></path><path id="Shape" d="m36.966 54c.9455468.001139 1.757973-.670982 1.934-1.6l2.263-12.069c.1091192-.5755879-.0442753-1.1698457-.4183497-1.6207079-.3740745-.4508622-.9298112-.7113019-1.5156503-.7102921-.9436636.0012632-1.7533237.672832-1.929 1.6l-2.266 12.072c-.1076668.574734.0460854 1.1675688.4195083 1.6175318s.9277599.7103537 1.5124917.7104682z"></path></g><path id="Shape" d="m12 34c-.0017589.2317762-.0423199.4616216-.12.68l-2.2 6.05-5.8 15.95c-.3968566 1.0071724-1.52303691 1.5157674-2.54103116 1.1475567-1.01799425-.3682106-1.55823899-1.4795552-1.21896884-2.5075567l7.75-21.32.25-.68c.33110288-.9122567 1.26933913-1.4551612 2.2252547-1.2876296.9559155.1675316 1.6536074.9971452 1.6547453 1.9676296z" fill="#84b5cb"></path><path id="Shape" d="m56.68 57.88c-1.0382735.3750761-2.1840934-.1620269-2.56-1.2l-5.8-15.95-2.2-6.05c-.0776801-.2183784-.1182411-.4482238-.12-.68.0011379-.9704844.6988298-1.800098 1.6547453-1.9676296.9559156-.1675316 1.8941518.3753729 2.2252547 1.2876296l.25.68 7.75 21.32c.3750761 1.0382735-.1620269 2.1840934-1.2 2.56z" fill="#84b5cb"></path><path id="Shape" d="m49.7 28h-20.11l3.49-6.67c1.76721-3.380664 5.4737158-5.2799978 9.25-4.74 2.0398733.2952955 3.9172384 1.2798535 5.32 2.79 2.1505235 2.3135067 2.9287996 5.5860627 2.05 8.62z" fill="#4fba6f"></path><path id="Shape" d="m52.99 9.17-5.34 10.21c-1.4027616-1.5101465-3.2801267-2.4947045-5.32-2.79l5.34-10.2z" fill="#24ae5f"></path><path id="Shape" d="m55.27 6.98-.93 1.77c-.2569176.48864571-.8612131.67664876-1.35.42l-5.32-2.78c-.4886457-.25691755-.6766488-.86121306-.42-1.35l.93-1.77c.255638-.48964937.8582616-.68159615 1.35-.43l5.31 2.79c.4896494.25563799.6815961.85826158.43 1.35z" fill="#4fba6f"></path><path id="Shape" d="m55.77 3.86-.93 1.77-5.31-2.79.93-1.77c.5138351-.97729142 1.7224261-1.35329751 2.7-.84l1.77.93c.9772914.5138351 1.3532975 1.72242612.84 2.7z" fill="#f0c419"></path><path id="Shape" d="m37.089 23.294c-.349492-.0004745-.6733786-.1833745-.8542718-.4824104-.1808932-.299036-.1925434-.6708144-.0307282-.9805896 1.7-3.257 5.4-2.7 5.559-2.676.5453812.087261.916761.6001188.8295 1.1455s-.6001188.916761-1.1455.8295c-1.380186-.212119-2.7516642.4311442-3.471 1.628-.1727964.329891-.5145937.5364336-.887.536z" fill="#fff"></path><path id="Shape" d="m25.89 28h-18.09c-.08-.12-.17-.25-.25-.38-6.94-10.64-9.57-21.22-5.87-23.64 2.3-1.5 6.5.51 11.02 4.81.27.25.54.52.81.79s.51.52.78.79c1.15 1.21 2.32 2.56 3.47 4.04.22.28.43.56.65.85s.43.57.64.86c.64.88 1.28 1.8 1.9 2.75.23.36.47.72.69 1.08.19.3.37.6.55.9s.35.59.52.89c1.1917882 2.0170593 2.2539369 4.1079558 3.18 6.26z" fill="#f29c1f"></path><path id="Shape" d="m14.29 10.37c-.7684892 2.0119032-2.2390126 3.677786-4.14 4.69-.479574.2152795-1.04395235.0224977-1.29160328-.4411892-.24765094-.4636868-.09401454-1.0399538.35160328-1.3188108 1.7519733-.9383675 3.02126-2.5786205 3.49-4.51.27.25.54.52.81.79s.51.52.78.79z" fill="#e57e25"></path><path id="Shape" d="m19.05 16.12c-1.2670159 1.9175118-2.8693008 3.590934-4.73 4.94-.1682127.1233932-.3713822.1899487-.58.19-.3242794-.0028251-.6282133-.1584986-.82-.42-.3181521-.4478544-.2154556-1.068498.23-1.39 1.8611895-1.3474605 3.4295164-3.0586719 4.61-5.03.22.28.43.56.65.85s.43.57.64.86z" fill="#e57e25"></path><path id="Shape" d="m22.71 21.74c-1.3093855 1.4000547-2.7307627 2.6909997-4.25 3.86-.1745498.1354677-.3890506.2093122-.61.21-.3105502.0038215-.604191-.1411404-.79-.39-.163646-.2088146-.236733-.4745257-.2029016-.7376588.0338314-.263133.1717559-.5017141.3829016-.6623412 1.586119-1.2215378 3.0587587-2.5837295 4.4-4.07.19.3.37.6.55.9s.35.59.52.89z" fill="#e57e25"></path></g></g></svg>